{
  "accessors": [
    {
      "bufferView": 2,
      "componentType": 5126,
      "count": 3044,
      "max": [
        0.6414780616760254,
        6.436812400817871,
        40.42048263549805
      ],
      "min": [
        -40.94320297241211,
        -0.11961428821086884,
        0.0677679181098938
      ],
      "type": "VEC3"
    },
    {
      "bufferView": 2,
      "byteOffset": 36528,
      "componentType": 5126,
      "count": 3044,
      "max": [
        1.0,
        1.0,
        1.0
      ],
      "min": [
        -1.0,
        -1.0,
        -1.0
      ],
      "type": "VEC3"
    },
    {
      "bufferView": 3,
      "componentType": 5126,
      "count": 3044,
      "max": [
        1.0,
        1.0,
        1.0,
        1.0
      ],
      "min": [
        -1.0,
        -0.8783186078071594,
        -1.0,
        1.0
      ],
      "type": "VEC4"
    },
    {
      "bufferView": 1,
      "componentType": 5126,
      "count": 3044,
      "max": [
        1.0,
        1.0
      ],
      "min": [
        0.0,
        -0.0017628669738769531
      ],
      "type": "VEC2"
    },
    {
      "bufferView": 0,
      "componentType": 5125,
      "count": 6096,
      "type": "SCALAR"
    },
    {
      "bufferView": 2,
      "byteOffset": 73056,
      "componentType": 5126,
      "count": 1352,
      "max": [
        0.9847345352172852,
        19.276939392089844,
        39.767086029052734
      ],
      "min": [
        -41.19646453857422,
        6.301606178283691,
        0.5024986267089844
      ],
      "type": "VEC3"
    },
    {
      "bufferView": 2,
      "byteOffset": 89280,
      "componentType": 5126,
      "count": 1352,
      "max": [
        1.0,
        1.0,
        1.0
      ],
      "min": [
        -1.0,
        -1.0,
        -1.0
      ],
      "type": "VEC3"
    },
    {
      "bufferView": 3,
      "byteOffset": 48704,
      "componentType": 5126,
      "count": 1352,
      "max": [
        1.0,
        2.5787551294342848e-06,
        1.0,
        1.0
      ],
      "min": [
        -1.0,
        -3.1808997391635785e-06,
        -1.0,
        1.0
      ],
      "type": "VEC4"
    },
    {
      "bufferView": 1,
      "byteOffset": 24352,
      "componentType": 5126,
      "count": 1352,
      "max": [
        1.0,
        1.0
      ],
      "min": [
        -7.450580596923828e-09,
        0.0
      ],
      "type": "VEC2"
    },
    {
      "bufferView": 0,
      "byteOffset": 24384,
      "componentType": 5125,
      "count": 2028,
      "type": "SCALAR"
    }
  ],
  "asset": {
    "extras": {
      "author": "andrettia (https://sketchfab.com/andrettia)",
      "license": "CC-BY-4.0 (http://creativecommons.org/licenses/by/4.0/)",
      "source": "https://sketchfab.com/3d-models/h12-dd8df6b6d0fa4dce8b0ad58c5e6ef907",
      "title": "h12"
    },
    "generator": "Sketchfab-15.31.0",
    "version": "2.0"
  },
  "bufferViews": [
    {
      "buffer": 0,
      "byteLength": 32496,
      "name": "floatBufferViews",
      "target": 34963
    },
    {
      "buffer": 0,
      "byteLength": 35168,
      "byteOffset": 32496,
      "byteStride": 8,
      "name": "floatBufferViews",
      "target": 34962
    },
    {
      "buffer": 0,
      "byteLength": 105504,
      "byteOffset": 67664,
      "byteStride": 12,
      "name": "floatBufferViews",
      "target": 34962
    },
    {
      "buffer": 0,
      "byteLength": 70336,
      "byteOffset": 173168,
      "byteStride": 16,
      "name": "floatBufferViews",
      "target": 34962
    }
  ],
  "buffers": [
    {
      "byteLength": 243504,
      "uri": "scene.bin"
    }
  ],
  "extensionsUsed": [
    "KHR_materials_specular"
  ],
  "images": [
    {
      "uri": "textures/blinn1_baseColor.png"
    },
    {
      "uri": "textures/blinn1_metallicRoughness.png"
    },
    {
      "uri": "textures/blinn1_normal.png"
    },
    {
      "uri": "textures/blinn1_specularf0.png"
    },
    {
      "uri": "textures/blinn2_baseColor.png"
    },
    {
      "uri": "textures/blinn2_metallicRoughness.png"
    },
    {
      "uri": "textures/blinn2_normal.png"
    },
    {
      "uri": "textures/blinn2_specularf0.png"
    }
  ],
  "materials": [
    {
      "doubleSided": true,
      "extensions": {
        "KHR_materials_specular": {
          "specularColorFactor": [
            1.0,
            1.0,
            1.0
          ],
          "specularFactor": 1.0,
          "specularTexture": {
            "index": 3
          }
        }
      },
      "name": "blinn1",
      "normalTexture": {
        "index": 2
      },
      "pbrMetallicRoughness": {
        "baseColorTexture": {
          "index": 0
        },
        "metallicFactor": 0.0,
        "metallicRoughnessTexture": {
          "index": 1
        }
      }
    },
    {
      "doubleSided": true,
      "extensions": {
        "KHR_materials_specular": {
          "specularColorFactor": [
            1.0,
            1.0,
            1.0
          ],
          "specularFactor": 1.0,
          "specularTexture": {
            "index": 7
          }
        }
      },
      "name": "blinn2",
      "normalTexture": {
        "index": 6
      },
      "pbrMetallicRoughness": {
        "baseColorTexture": {
          "index": 4
        },
        "metallicFactor": 0.0,
        "metallicRoughnessTexture": {
          "index": 5
        }
      }
    }
  ],
  "meshes": [
    {
      "name": "polySurface141_blinn1_0",
      "primitives": [
        {
          "attributes": {
            "NORMAL": 1,
            "POSITION": 0,
            "TANGENT": 2,
            "TEXCOORD_0": 3
          },
          "indices": 4,
          "material": 0,
          "mode": 4
        }
      ]
    },
    {
      "name": "polySurface141_blinn2_0",
      "primitives": [
        {
          "attributes": {
            "NORMAL": 6,
            "POSITION": 5,
            "TANGENT": 7,
            "TEXCOORD_0": 8
          },
          "indices": 9,
          "material": 1,
          "mode": 4
        }
      ]
    }
  ],
  "nodes": [
    {
      "children": [
        1
      ],
      "matrix": [
        1.0,
        0.0,
        0.0,
        0.0,
        0.0,
        2.220446049250313e-16,
        -1.0,
        0.0,
        0.0,
        1.0,
        2.220446049250313e-16,
        0.0,
        0.0,
        0.0,
        0.0,
        1.0
      ],
      "name": "Sketchfab_model"
    },
    {
      "children": [
        2
      ],
      "matrix": [
        0.009999999776482582,
        0.0,
        0.0,
        0.0,
        0.0,
        0.0,
        0.009999999776482582,
        0.0,
        0.0,
        -0.009999999776482582,
        0.0,
        0.0,
        0.0,
        0.0,
        0.0,
        1.0
      ],
      "name": "68cfd2501df64cf4bbb9baf89d4dd6f1.fbx"
    },
    {
      "children": [
        3
      ],
      "name": "RootNode"
    },
    {
      "children": [
        4,
        5
      ],
      "matrix": [
        1.0,
        0.0,
        0.0,
        0.0,
        0.0,
        1.0,
        0.0,
        0.0,
        0.0,
        0.0,
        1.0,
        0.0,
        20.105865478515625,
        0.11961428821086884,
        -20.244125366210938,
        1.0
      ],
      "name": "polySurface141"
    },
    {
      "mesh": 0,
      "name": "polySurface141_blinn1_0"
    },
    {
      "mesh": 1,
      "name": "polySurface141_blinn2_0"
    }
  ],
  "samplers": [
    {
      "magFilter": 9729,
      "minFilter": 9987,
      "wrapS": 10497,
      "wrapT": 10497
    }
  ],
  "scene": 0,
  "scenes": [
    {
      "name": "Sketchfab_Scene",
      "nodes": [
        0
      ]
    }
  ],
  "textures": [
    {
      "sampler": 0,
      "source": 0
    },
    {
      "sampler": 0,
      "source": 1
    },
    {
      "sampler": 0,
      "source": 2
    },
    {
      "sampler": 0,
      "source": 3
    },
    {
      "sampler": 0,
      "source": 4
    },
    {
      "sampler": 0,
      "source": 5
    },
    {
      "sampler": 0,
      "source": 6
    },
    {
      "sampler": 0,
      "source": 7
    }
  ]
}
